<?xml version="1.0" encoding="iso-8859-1"?>
<!-- Generator: Adobe Illustrator 19.0.0, SVG Export Plug-In . SVG Version: 6.00 Build 0)  -->
<svg version="1.1" id="Layer_1" xmlns="http://www.w3.org/2000/svg" xmlns:xlink="http://www.w3.org/1999/xlink" x="0px" y="0px"
	 viewBox="0 0 512 512" style="enable-background:new 0 0 512 512;" xml:space="preserve">
<circle style="fill:#4AB8A1;" cx="256" cy="240" r="240"/>
<path style="fill:#43A691;" d="M422.072,413.02c-0.24-0.708-0.5-1.392-0.828-2.052c-0.24-0.712-0.508-1.4-0.836-2.056
	c-0.236-0.708-0.5-1.388-0.82-2.048c-0.24-0.708-0.508-1.396-0.836-2.056c-0.232-0.704-0.492-1.376-0.812-2.024
	c-0.24-0.72-0.508-1.412-0.836-2.08c-0.236-0.704-0.5-1.384-0.828-2.044c-0.236-0.708-0.5-1.396-0.828-2.06
	c-0.236-0.704-0.5-1.384-0.828-2.04c-0.236-0.712-0.5-1.396-0.824-2.056c-0.24-0.708-0.504-1.4-0.832-2.056
	c-0.236-0.704-0.5-1.384-0.824-2.048c-0.24-0.708-0.504-1.396-0.832-2.056c-0.236-0.704-0.5-1.384-0.824-2.044
	c-0.24-0.708-0.504-1.396-0.832-2.06c-0.236-0.704-0.5-1.384-0.824-2.044c-0.24-0.708-0.504-1.396-0.832-2.056
	c-0.236-0.708-0.5-1.388-0.824-2.044c-0.24-0.712-0.504-1.4-0.832-2.056c-0.236-0.704-0.492-1.376-0.816-2.028
	c-0.24-0.716-0.504-1.404-0.832-2.076c-0.236-0.704-0.504-1.392-0.832-2.056c-0.24-0.704-0.5-1.384-0.824-2.044
	c-0.236-0.708-0.504-1.396-0.832-2.056c-0.236-0.708-0.5-1.388-0.824-2.044c-0.236-0.712-0.504-1.4-0.828-2.06
	c-0.24-0.704-0.5-1.384-0.828-2.044c-0.236-0.712-0.5-1.4-0.828-2.056c-0.24-0.704-0.5-1.388-0.828-2.048
	c-0.236-0.708-0.5-1.392-0.828-2.052c-0.236-0.708-0.5-1.396-0.828-2.06c-0.24-0.704-0.5-1.384-0.828-2.04
	c-0.236-0.712-0.5-1.4-0.828-2.06c-0.24-0.704-0.5-1.388-0.828-2.044c-0.236-0.712-0.5-1.4-0.828-2.056
	c-0.236-0.704-0.492-1.376-0.82-2.028c-0.236-0.716-0.5-1.408-0.836-2.076c-0.232-0.704-0.5-1.384-0.82-2.048
	c-0.236-0.704-0.5-1.392-0.828-2.052c-0.236-0.708-0.508-1.396-0.836-2.056c-0.228-0.708-0.5-1.388-0.82-2.044
	c-0.236-0.712-0.504-1.4-0.832-2.056c-0.232-0.708-0.5-1.388-0.824-2.048c-0.236-0.708-0.504-1.4-0.832-2.056
	c-0.232-0.704-0.5-1.384-0.824-2.048c-0.236-0.708-0.504-1.396-0.832-2.056c-0.232-0.704-0.5-1.384-0.824-2.044
	c-0.236-0.708-0.5-1.396-0.828-2.052c-0.236-0.712-0.504-1.4-0.832-2.06c-0.232-0.704-0.5-1.384-0.824-2.044
	c-0.236-0.704-0.496-1.384-0.82-2.04c-0.236-0.712-0.504-1.4-0.832-2.064c-0.236-0.708-0.504-1.396-0.832-2.056
	c-0.236-0.704-0.5-1.384-0.824-2.048c-0.236-0.704-0.504-1.392-0.832-2.056c-0.236-0.704-0.5-1.384-0.82-2.044
	c-0.24-0.708-0.5-1.396-0.828-2.052c-0.24-0.712-0.508-1.4-0.836-2.056c-0.236-0.708-0.5-1.388-0.82-2.048
	c-0.24-0.708-0.508-1.396-0.836-2.056c-0.236-0.704-0.5-1.384-0.82-2.048c-0.24-0.704-0.508-1.396-0.836-2.056
	c-0.236-0.704-0.5-1.384-0.82-2.044c-0.24-0.708-0.508-1.396-0.836-2.06c-0.236-0.704-0.5-1.384-0.82-2.04
	c-0.236-0.704-0.5-1.384-0.82-2.036c-0.24-0.716-0.508-1.412-0.836-2.076c-0.236-0.704-0.5-1.384-0.828-2.048
	c-0.236-0.708-0.5-1.396-0.828-2.056c-0.236-0.704-0.5-1.384-0.824-2.044c-0.24-0.708-0.504-1.396-0.832-2.06
	c-0.236-0.704-0.5-1.384-0.824-2.044c-0.24-0.708-0.504-1.396-0.832-2.056c-0.236-0.708-0.5-1.388-0.824-2.044
	c-0.24-0.712-0.504-1.4-0.832-2.06c-0.236-0.704-0.5-1.384-0.824-2.044c-0.24-0.712-0.5-1.392-0.828-2.056
	c-0.24-0.704-0.504-1.392-0.832-2.056c-0.236-0.704-0.5-1.384-0.824-2.044c-0.24-0.708-0.504-1.396-0.832-2.06
	c-0.236-0.696-0.492-1.368-0.816-2.024c-0.24-0.716-0.504-1.408-0.836-2.076c-0.24-0.704-0.5-1.384-0.824-2.044
	c-0.236-0.712-0.504-1.4-0.832-2.056c-0.236-0.704-0.5-1.388-0.824-2.048c-0.236-0.708-0.5-1.392-0.828-2.052
	c-0.236-0.708-0.5-1.396-0.828-2.06c-0.24-0.704-0.5-1.384-0.828-2.04c-0.236-0.712-0.5-1.4-0.828-2.06
	c-0.24-0.704-0.5-1.388-0.828-2.044c-0.236-0.712-0.5-1.4-0.828-2.056c-0.24-0.708-0.5-1.388-0.828-2.048
	c-0.236-0.708-0.5-1.4-0.828-2.056c-0.24-0.704-0.5-1.384-0.828-2.048c-0.236-0.708-0.5-1.392-0.828-2.052
	c-0.236-0.7-0.492-1.384-0.82-2.04c-0.236-0.708-0.5-1.396-0.828-2.06c-0.236-0.712-0.508-1.4-0.836-2.06
	c-0.228-0.704-0.5-1.384-0.82-2.044c-0.236-0.712-0.508-1.4-0.836-2.056c-0.228-0.704-0.5-1.384-0.82-2.048
	c-0.236-0.708-0.504-1.396-0.832-2.056c-0.232-0.704-0.5-1.384-0.824-2.044c-0.236-0.708-0.5-1.396-0.828-2.052
	c-0.236-0.712-0.504-1.4-0.832-2.06c-0.232-0.704-0.5-1.384-0.824-2.044c-0.236-0.712-0.504-1.4-0.832-2.056
	c-0.232-0.708-0.5-1.388-0.824-2.048c-0.236-0.708-0.504-1.396-0.832-2.056c-0.232-0.704-0.5-1.384-0.824-2.048
	c-0.236-0.704-0.504-1.396-0.832-2.056c-0.232-0.7-0.492-1.372-0.816-2.024c-0.236-0.716-0.504-1.408-0.832-2.072
	c-0.236-0.712-0.504-1.4-0.832-2.056c-0.236-0.708-0.5-1.388-0.82-2.048c-0.24-0.708-0.508-1.4-0.836-2.056
	c-0.236-0.704-0.5-1.384-0.82-2.048c-0.24-0.708-0.508-1.396-0.836-2.056c-0.236-0.704-0.5-1.384-0.82-2.044
	c-0.24-0.708-0.508-1.396-0.836-2.06c-0.236-0.704-0.5-1.384-0.82-2.044c-0.24-0.708-0.508-1.396-0.836-2.056
	c-0.236-0.708-0.5-1.388-0.82-2.044c-0.24-0.712-0.5-1.392-0.828-2.056c-0.24-0.708-0.508-1.396-0.836-2.056
	c-0.236-0.704-0.5-1.384-0.82-2.048c-0.24-0.696-0.5-1.384-0.82-2.04c-0.236-0.708-0.508-1.396-0.836-2.06
	c-0.236-0.708-0.5-1.396-0.828-2.056c-0.236-0.708-0.5-1.388-0.824-2.044c-0.24-0.712-0.504-1.4-0.832-2.06
	c-0.236-0.704-0.5-1.384-0.824-2.044c-0.24-0.712-0.5-1.392-0.828-2.056c-0.24-0.704-0.504-1.396-0.832-2.056
	c-0.236-0.704-0.5-1.384-0.824-2.044c-0.24-0.708-0.504-1.396-0.832-2.06c-0.236-0.704-0.5-1.384-0.824-2.04
	c-0.24-0.712-0.504-1.4-0.832-2.06c-0.236-0.704-0.5-1.384-0.824-2.044c-0.24-0.712-0.504-1.4-0.832-2.056
	c-0.236-0.708-0.5-1.388-0.824-2.048c-0.232-0.7-0.496-1.38-0.82-2.032c-0.276-0.376-0.544-1.068-0.876-1.736
	c-0.236-0.704-0.5-1.384-0.824-2.044c-0.24-0.708-0.504-1.396-0.832-2.06c-0.236-0.704-0.5-1.384-0.824-2.044
	c-0.236-0.708-0.504-1.396-0.832-2.056c-0.236-0.708-0.5-1.388-0.82-2.044c-0.24-0.712-0.508-1.4-0.836-2.06
	c-0.236-0.704-0.5-1.384-0.82-2.044c-0.24-0.712-0.5-1.392-0.828-2.056c-0.24-0.704-0.508-1.396-0.836-2.056
	c-0.236-0.704-0.5-1.384-0.82-2.044c-0.24-0.708-0.508-1.396-0.836-2.06c-0.236-0.704-0.5-1.384-0.82-2.04
	c-0.24-0.712-0.508-1.4-0.836-2.06c-0.232-0.7-0.492-1.372-0.812-2.024c-0.24-0.716-0.508-1.412-0.836-2.076
	c-0.236-0.708-0.5-1.388-0.828-2.048c-0.236-0.708-0.5-1.396-0.828-2.056c-0.236-0.704-0.5-1.384-0.828-2.048
	c-0.236-0.704-0.5-1.392-0.828-2.048c-0.236-0.712-0.5-1.4-0.828-2.06C285.008,72.652,279.056,68,272,68h-12h-23.532
	c-0.104-0.244-0.256-0.444-0.372-0.68c-0.236-0.72-0.504-1.408-0.836-2.08c-0.236-0.704-0.5-1.388-0.824-2.044
	c-0.236-0.708-0.504-1.396-0.832-2.056c-0.236-0.708-0.5-1.388-0.824-2.044c-0.236-0.712-0.504-1.396-0.828-2.056
	c-0.236-0.708-0.504-1.396-0.832-2.056c-2.112-6.368-8.056-11-15.12-11c-8.824,0-16,7.176-16,16c0,2.444,0.616,4.736,1.616,6.8
	c0.132,0.404,0.268,0.808,0.432,1.2H160c-8.8,0-16,7.2-16,16V452.24c29.896,15.812,63.512,25.524,99.22,27.4
	c4.236,0.212,8.488,0.36,12.78,0.36c64.488,0,122.988-25.484,166.108-66.868C422.092,413.092,422.084,413.056,422.072,413.02z"/>
<path style="fill:#F5F5F5;" d="M216,76c-8.824,0-16-7.176-16-16s7.176-16,16-16s16,7.176,16,16S224.824,76,216,76z M216,52
	c-4.412,0-8,3.584-8,8s3.588,8,8,8s8-3.584,8-8S220.412,52,216,52z"/>
<path style="fill:#FFF3D4;" d="M288,496c0,8.8-7.2,16-16,16H160c-8.8,0-16-7.2-16-16V84c0-8.8,7.2-16,16-16h112c8.8,0,16,7.2,16,16
	V496z"/>
<g>
	<path style="fill:#F2E7C9;" d="M272,68h-12c8.8,0,16,7.2,16,16v412c0,8.8-7.2,16-16,16h12c8.8,0,16-7.2,16-16V84
		C288,75.2,280.8,68,272,68z"/>
	<path style="fill:#F2E7C9;" d="M208,296v118.092c-13.972,4.94-24,18.24-24,33.908c0,19.884,16.116,36,36,36s36-16.116,36-36
		c0-15.668-10.028-28.96-24-33.908V296H208z"/>
</g>
<path style="fill:#CC584C;" d="M204,296v118.092c-13.972,4.94-24,18.24-24,33.908c0,19.884,16.116,36,36,36s36-16.116,36-36
	c0-15.668-10.028-28.96-24-33.908V296H204z"/>
<path style="fill:#F2E7C9;" d="M232,296V124c0-6.628-5.372-12-12-12s-12,5.372-12,12v172H232z"/>
<path style="fill:#F5F5F5;" d="M228,296V124c0-6.628-5.372-12-12-12s-12,5.372-12,12v172H228z"/>
<g>
	<rect x="236" y="352" style="fill:#E6DBBF;" width="20" height="8"/>
	<rect x="236" y="368" style="fill:#E6DBBF;" width="8" height="8"/>
	<rect x="236" y="320" style="fill:#E6DBBF;" width="20" height="8"/>
	<rect x="236" y="336" style="fill:#E6DBBF;" width="8" height="8"/>
	<rect x="236" y="288" style="fill:#E6DBBF;" width="20" height="8"/>
	<rect x="236" y="304" style="fill:#E6DBBF;" width="8" height="8"/>
	<rect x="236" y="256" style="fill:#E6DBBF;" width="20" height="8"/>
	<rect x="236" y="272" style="fill:#E6DBBF;" width="8" height="8"/>
	<rect x="236" y="224" style="fill:#E6DBBF;" width="20" height="8"/>
	<rect x="236" y="240" style="fill:#E6DBBF;" width="8" height="8"/>
	<rect x="236" y="192" style="fill:#E6DBBF;" width="20" height="8"/>
	<rect x="236" y="208" style="fill:#E6DBBF;" width="8" height="8"/>
</g>
<circle style="fill:#FF6E5F;" cx="200" cy="436" r="8"/>
<g>
	<path style="fill:#F5F5F5;" d="M372,256c-22.056,0-40-17.944-40-40v-40c0-22.056,17.944-40,40-40s40,17.944,40,40v40
		C412,238.056,394.056,256,372,256z M372,152c-13.236,0-24,10.764-24,24v40c0,13.236,10.764,24,24,24s24-10.764,24-24v-40
		C396,162.764,385.236,152,372,152z"/>
	<path style="fill:#F5F5F5;" d="M436,180c-8.824,0-16-7.176-16-16v-12c0-8.824,7.176-16,16-16s16,7.176,16,16c0,2.212-1.792,4-4,4
		s-4-1.788-4-4c0-4.416-3.584-8-8-8s-8,3.584-8,8v12c0,4.416,3.584,8,8,8s8-3.584,8-8c0-2.212,1.792-4,4-4s4,1.788,4,4
		C452,172.824,444.824,180,436,180z"/>
</g>
<g>
</g>
<g>
</g>
<g>
</g>
<g>
</g>
<g>
</g>
<g>
</g>
<g>
</g>
<g>
</g>
<g>
</g>
<g>
</g>
<g>
</g>
<g>
</g>
<g>
</g>
<g>
</g>
<g>
</g>
</svg>
